<?xml version="1.0" standalone="no"?><!DOCTYPE svg PUBLIC "-//W3C//DTD SVG 1.1//EN" "http://www.w3.org/Graphics/SVG/1.1/DTD/svg11.dtd"><svg t="1722928620212" class="icon" viewBox="0 0 1024 1024" version="1.1" xmlns="http://www.w3.org/2000/svg" p-id="6131" xmlns:xlink="http://www.w3.org/1999/xlink" width="64" height="64"><path d="M0.080896 789.504h1024v123.562667H0.080896zM92.240896 637.44v-375.466667H51.280896a48.64 48.64 0 0 1-51.2-51.370666 47.616 47.616 0 0 1 51.2-49.493334h99.328c29.696 2.048 45.397333 19.456 47.274667 52.394667v423.936q-2.730667 52.394667-52.736 52.394667t-52.906667-52.394667zM437.158229 591.018667h128c37.034667 0 55.637333 17.066667 55.637334 49.322666s-17.066667 47.445333-50.176 49.493334h-238.933334q-53.077333 0-52.906666-49.493334a68.266667 68.266667 0 0 1 13.824-37.717333q13.994667-17.066667 44.544-52.224a1634.474667 1634.474667 0 0 0 133.632-168.448A129.877333 129.877333 0 0 0 495.014229 312.149333c-3.754667-34.133333-20.309333-54.101333-50.005333-58.026666q-44.544 0-64 63.829333c-11.093333 36.864-26.965333 55.296-47.274667 55.296a50.176 50.176 0 0 1-52.906666-52.394667q17.066667-151.04 166.912-168.448 150.357333 8.704 158.549333 153.6 0 78.677333-125.098667 229.546667C460.880896 560.981333 446.374229 580.266667 437.158229 591.018667zM843.344896 152.405333q136.533333 8.704 153.6 136.533334A130.389333 130.389333 0 0 1 938.747563 402.261333a145.408 145.408 0 0 1 85.333333 130.730667q-13.994667 147.968-178.005333 159.744-150.186667-8.704-172.544-133.632 5.632-43.52 55.637333-49.493333c12.970667 0 26.965333 11.776 41.813333 34.986666Q802.214229 597.333333 846.075563 597.333333q61.269333-5.802667 66.730666-69.632 0-55.296-64-64-55.466667-11.434667-55.637333-52.224c0-25.088 17.066667-42.666667 50.176-52.224s50.005333-26.282667 50.005333-55.296a47.445333 47.445333 0 0 0-50.005333-49.322666 73.386667 73.386667 0 0 0-64 40.618666c-14.848 21.333333-29.696 31.914667-44.544 31.914667-27.818667-1.877333-42.666667-20.309333-44.544-55.125333q19.456-105.130667 153.088-119.637334z" p-id="6132"></path></svg>