<?xml version="1.0" standalone="no"?><!DOCTYPE svg PUBLIC "-//W3C//DTD SVG 1.1//EN" "http://www.w3.org/Graphics/SVG/1.1/DTD/svg11.dtd"><svg t="1722928600756" class="icon" viewBox="0 0 1024 1024" version="1.1" xmlns="http://www.w3.org/2000/svg" p-id="4859" xmlns:xlink="http://www.w3.org/1999/xlink" width="64" height="64"><path d="M603.022 779.378h142.222v96.71l250.312-147.91-250.312-147.911v96.71H603.022v102.4zM244.622 96.71c0-5.689 5.69-11.378 11.378-11.378h420.978v216.178h216.178v307.2l56.888 34.133v-301.51c0-39.823-22.755-113.778-45.51-136.534L785.066 85.333c-28.445-28.444-79.645-45.51-113.778-45.51H256c-39.822 0-68.267 28.444-68.267 68.266v136.533h56.89V96.712z m489.245 11.378l11.377 11.378 119.467 119.466s5.689 5.69 5.689 11.378H728.178c5.689 0 5.689-142.222 5.689-142.222z" p-id="4860"></path><path d="M603.022 375.467H824.89v62.577H603.022v-62.577zM898.844 921.6c0 5.689-5.688 11.378-11.377 11.378H261.689c-5.689 0-11.378-5.69-11.378-11.378v-45.511h-56.889V921.6c0 39.822 28.445 68.267 68.267 68.267h625.778c39.822 0 68.266-28.445 68.266-68.267V807.822l-56.889 34.134V921.6z m-358.4-620.089h-512v512h512v-512zM352.711 705.422l-68.267-108.089L256 642.844h28.444v56.89H125.156l113.777-164.978-96.71-147.912h85.333l56.888 85.334 62.578-85.334h85.334l-102.4 147.912 113.777 164.977-91.022 5.69z m250.311-204.8H824.89V563.2H603.022v-62.578z" p-id="4861"></path></svg>