<?xml version="1.0" standalone="no"?><!DOCTYPE svg PUBLIC "-//W3C//DTD SVG 1.1//EN" "http://www.w3.org/Graphics/SVG/1.1/DTD/svg11.dtd"><svg t="1723124958876" class="icon" viewBox="0 0 1024 1024" version="1.1" xmlns="http://www.w3.org/2000/svg" p-id="1754" xmlns:xlink="http://www.w3.org/1999/xlink" width="64" height="64"><path d="M319.53 748.13h166.75c10.93 0.28 19.57 9.83 19.57 21.59s-8.73 21.31-19.57 21.59H270.83c-11 0.09-20-9.55-20.12-21.41V390h-19.94c-11.12 0-20.12-9.74-20.12-21.68V252a22.47 22.47 0 0 1 5.88-15.34 19.53 19.53 0 0 1 14.24-6.34h108.68c11.12 0 20.12 9.74 20.12 21.68v116.33a22.47 22.47 0 0 1-5.88 15.34 19.53 19.53 0 0 1-14.24 6.33h-19.94v128h166.75c11 0 20 9.65 20 21.59s-9 21.59-20 21.59H319.53zM439.69 252a22.47 22.47 0 0 1 5.88-15.34 19.53 19.53 0 0 1 14.24-6.34H794.5c11.12 0 20.12 9.74 20.12 21.68v116.33a22.47 22.47 0 0 1-5.88 15.34A19.53 19.53 0 0 1 794.5 390H459.81a19.53 19.53 0 0 1-14.24-6.34 22.47 22.47 0 0 1-5.88-15.34z m146.9 244.56a22.47 22.47 0 0 1 5.88-15.34 19.58 19.58 0 0 1 14.33-6.34h187.78c11.12 0 20.12 9.74 20.12 21.68v86.08c0 11.94-9 21.59-20 21.59H606.81a19.16 19.16 0 0 1-14.24-6.34 23 23 0 0 1-6-15.34l0.02-85.97z m0 230.05a22.47 22.47 0 0 1 5.88-15.34 19.53 19.53 0 0 1 14.24-6.27H794.5c11.12 0 20.12 9.74 20.12 21.68v86.08c0 11.94-8.91 21.68-20 21.68H606.81a19.16 19.16 0 0 1-14.24-6.34 23 23 0 0 1-6-15.34v-86.13z" p-id="1755"></path></svg>