<?xml version="1.0" standalone="no"?><!DOCTYPE svg PUBLIC "-//W3C//DTD SVG 1.1//EN" "http://www.w3.org/Graphics/SVG/1.1/DTD/svg11.dtd"><svg t="1722928589888" class="icon" viewBox="0 0 1024 1024" version="1.1" xmlns="http://www.w3.org/2000/svg" p-id="4053" xmlns:xlink="http://www.w3.org/1999/xlink" width="64" height="64"><path d="M816 972.8H208c-41.6 0-76.8-33.6-76.8-76.8V128c0-41.6 33.6-76.8 76.8-76.8h395.2c16 0 32 6.4 43.2 17.6l228.8 228.8c11.2 11.2 17.6 27.2 17.6 43.2V896c0 41.6-35.2 76.8-76.8 76.8z m-608-864c-11.2 0-20.8 9.6-20.8 20.8v768c0 11.2 9.6 20.8 20.8 20.8h608c11.2 0 20.8-9.6 20.8-20.8V340.8c0-1.6 0-1.6-1.6-3.2L606.4 108.8c-1.6-1.6-1.6-1.6-3.2-1.6H208z" p-id="4054"></path><path d="M864 369.6H635.2c-33.6 0-60.8-27.2-60.8-60.8V80h56v228.8c0 1.6 1.6 4.8 4.8 4.8H864v56zM688 652.8H336c-16 0-28.8-12.8-28.8-28.8s12.8-28.8 28.8-28.8h352c16 0 28.8 12.8 28.8 28.8s-12.8 28.8-28.8 28.8z" p-id="4055"></path><path d="M512 828.8c-16 0-28.8-12.8-28.8-28.8V448c0-16 12.8-28.8 28.8-28.8s28.8 12.8 28.8 28.8v352c0 16-12.8 28.8-28.8 28.8z" p-id="4056"></path></svg>