<?xml version="1.0" standalone="no"?><!DOCTYPE svg PUBLIC "-//W3C//DTD SVG 1.1//EN" "http://www.w3.org/Graphics/SVG/1.1/DTD/svg11.dtd"><svg t="1717654260737" class="icon" viewBox="0 0 1182 1024" version="1.1" xmlns="http://www.w3.org/2000/svg" p-id="5247" xmlns:xlink="http://www.w3.org/1999/xlink" width="73.875" height="64"><path d="M669.608555 0.096635H512.144191a118.194523 118.194523 0 1 0 0 236.196546h157.464364a118.194523 118.194523 0 1 0 0-236.196546z m0 157.464364H512.144191a38.499845 38.499845 0 1 1 0-78.732182h157.464364a38.499845 38.499845 0 1 1 0 78.732182z m0 236.196546H512.144191a118.194523 118.194523 0 1 0 0 236.196546h157.464364a118.194523 118.194523 0 1 0 0-236.196546z m0 157.464364H512.144191a38.499845 38.499845 0 1 1 0-78.732182h157.464364a38.499845 38.499845 0 1 1 0 78.732182z m0 236.196546H512.144191a118.194523 118.194523 0 1 0 0 236.196547h157.464364a118.194523 118.194523 0 1 0 0-236.196547z m0 157.464364H512.144191a38.499845 38.499845 0 1 1 0-78.732182h157.464364a38.499845 38.499845 0 1 1 0 78.732182zM236.292805 866.343137a157.464364 157.464364 0 1 1 0-315.121228h78.732182v-78.539683h-78.732182a236.196546 236.196546 0 1 0 0 472.585592v78.732182l118.194523-118.194523-118.194523-118.194522zM945.267442 78.828817H866.342761v78.732182h78.924681a157.464364 157.464364 0 1 1 0 315.121227v-78.732182L827.842916 512.144567l118.194523 118.194523v-78.924682a236.196546 236.196546 0 1 0 0-472.585591z m0 0" fill="#0970DA" p-id="5248"></path></svg>