<?xml version="1.0" standalone="no"?><!DOCTYPE svg PUBLIC "-//W3C//DTD SVG 1.1//EN" "http://www.w3.org/Graphics/SVG/1.1/DTD/svg11.dtd"><svg t="1722928547804" class="icon" viewBox="0 0 1024 1024" version="1.1" xmlns="http://www.w3.org/2000/svg" p-id="1791" xmlns:xlink="http://www.w3.org/1999/xlink" width="64" height="64"><path d="M877.714 402.286c-47.543 0-87.771 29.257-102.4 73.143H650.971c-14.628-43.886-54.857-73.143-102.4-73.143s-87.771 29.257-102.4 73.143H325.486c-14.629-62.172-73.143-109.715-142.629-109.715-80.457 0-146.286 65.829-146.286 146.286S102.4 658.286 182.857 658.286c69.486 0 124.343-47.543 142.629-109.715H446.17c14.629 43.886 54.858 73.143 102.4 73.143s87.772-29.257 102.4-73.143h124.343c14.629 43.886 54.857 73.143 102.4 73.143 62.172 0 109.715-47.543 109.715-109.714s-47.543-109.714-109.715-109.714zM585.143 548.57H512V475.43h73.143v73.142z m329.143 0h-73.143V475.43h73.143v73.142z" p-id="1792"></path></svg>