<?xml version="1.0" standalone="no"?><!DOCTYPE svg PUBLIC "-//W3C//DTD SVG 1.1//EN" "http://www.w3.org/Graphics/SVG/1.1/DTD/svg11.dtd"><svg t="1722928587716" class="icon" viewBox="0 0 1024 1024" version="1.1" xmlns="http://www.w3.org/2000/svg" p-id="3895" xmlns:xlink="http://www.w3.org/1999/xlink" width="64" height="64"><path d="M660.8 584v-72h52c4.8 0 9.6-2.4 12.8-6.4l24.8-32c8-10.4 0.8-25.6-12.8-25.6h-76.4V320h216v85.2c0 4.8 2.4 9.6 6.4 12.8l32 24.8c10.4 8 25.6 0.8 25.6-12.8V144c0-8.8-7.2-16-16-16h-864c-8.8 0-16 7.2-16 16v736c0 8.8 7.2 16 16 16h476.4c8.4 0 15.6-6.8 16-15.2l1.6-32c0.4-9.2-6.8-16.8-16-16.8H384.8v-128h180c4.8 0 9.6-2.4 12.8-6.4l80-104c2-2.4 3.2-6 3.2-9.6z m-336 248h-216v-128h216v128z m0-192h-216v-128h216v128z m0-192h-216V320h216v128z m276 192h-216v-128h216v128z m0-192h-216V320h216v128z" p-id="3896"></path><path d="M973.2 565.2l-124.4-96c-6.8-5.2-17.2-4-22.4 2.8l-201.6 261.6 0.4 0.4h-0.4l-9.2 145.2c-0.8 11.2 10.4 19.6 21.2 16l138-46v-0.4l201.6-261.6c4.8-6.8 3.6-16.8-3.2-22z m-232 237.6l-68 22.8 4.4-72 168-218 63.6 49.2-168 218z" p-id="3897"></path></svg>